HIERARCHY
ROOT Hips
{
	OFFSET -3.958830 18.904000 13.208200
	CHANNELS 6 Xposition Yposition Zposition Zrotation Yrotation Xrotation 
	JOINT LHipJoint
	{
		OFFSET 0.000000 0.000000 0.000000
		CHANNELS 3 Zrotation Yrotation Xrotation
		JOINT LeftUpLeg
		{
			OFFSET 1.800000 -1.400000 0.085000
			CHANNELS 3 Zrotation Yrotation Xrotation
			JOINT LeftLeg
			{
				OFFSET 2.215000 -6.000000 0.000000
				CHANNELS 3 Zrotation Yrotation Xrotation
				JOINT LeftFoot
				{
					OFFSET 2.500000 -6.900000 0.000000
					CHANNELS 3 Zrotation Yrotation Xrotation
					JOINT LeftToeBase
					{
						OFFSET 0.200000 -0.500000 1.950000
						CHANNELS 3 Zrotation Yrotation Xrotation
						End Site
						{
							OFFSET 0.000000 0.000000 0.000000
						}
					}
				}
			}
		}
	}
	JOINT RHipJoint
	{
		OFFSET 0.000000 0.000000 0.000000
		CHANNELS 3 Zrotation Yrotation Xrotation
		JOINT RightUpLeg
		{
			OFFSET -1.800000 -1.400000 0.085000
			CHANNELS 3 Zrotation Yrotation Xrotation
			JOINT RightLeg
			{
				OFFSET -2.215000 -6.000000 0.000000
				CHANNELS 3 Zrotation Yrotation Xrotation
				JOINT RightFoot
				{
					OFFSET -2.500000 -6.900000 0.000000
					CHANNELS 3 Zrotation Yrotation Xrotation
					JOINT RightToeBase
					{
						OFFSET -0.200000 -0.500000 1.950000
						CHANNELS 3 Zrotation Yrotation Xrotation
						End Site
						{
							OFFSET 0.000000 0.000000 0.000000
						}
					}
				}
			}
		}
	}
	JOINT LowerBack
	{
		OFFSET 0.000000 0.000000 0.000000
		CHANNELS 3 Zrotation Yrotation Xrotation
		JOINT Spine
		{
			OFFSET -0.087000 1.940000 -0.288900
			CHANNELS 3 Zrotation Yrotation Xrotation
			JOINT Spine1
			{
				OFFSET 0.000000 1.950000 0.060000
				CHANNELS 3 Zrotation Yrotation Xrotation
				JOINT Neck
				{
					OFFSET 0.000000 0.000000 0.000000
					CHANNELS 3 Zrotation Yrotation Xrotation
					JOINT Neck1
					{
						OFFSET 0.000000 1.600000 0.340000
						CHANNELS 3 Zrotation Yrotation Xrotation
						JOINT Head
						{
							OFFSET 0.000000 1.667000 -0.240000
							CHANNELS 3 Zrotation Yrotation Xrotation
							End Site
							{
								OFFSET 0.000000 0.000000 0.000000
							}
						}
					}
				}
				JOINT LeftShoulder
				{
					OFFSET 0.000000 0.000000 0.000000
					CHANNELS 3 Zrotation Yrotation Xrotation
					JOINT LeftArm
					{
						OFFSET 2.700000 1.550000 -0.730000
						CHANNELS 3 Zrotation Yrotation Xrotation
						JOINT LeftForeArm
						{
							OFFSET 5.450000 0.000000 0.000000
							CHANNELS 3 Zrotation Yrotation Xrotation
							JOINT LeftHand
							{
								OFFSET 3.450000 0.000000 0.000000
								CHANNELS 3 Zrotation Yrotation Xrotation
								JOINT LeftHandIndex1
								{
									OFFSET 0.750000 0.000000 0.000000
									CHANNELS 3 Zrotation Yrotation Xrotation
									End Site
									{
										OFFSET 0.000000 0.000000 0.000000
									}
								}
							}
						}
					}
				}
				JOINT RightShoulder
				{
					OFFSET 0.000000 0.000000 0.000000
					CHANNELS 3 Zrotation Yrotation Xrotation
					JOINT RightArm
					{
						OFFSET -2.700000 1.550000 -0.730000
						CHANNELS 3 Zrotation Yrotation Xrotation
						JOINT RightForeArm
						{
							OFFSET -5.450000 0.000000 0.000000
							CHANNELS 3 Zrotation Yrotation Xrotation
							JOINT RightHand
							{
								OFFSET -3.450000 0.000000 0.000000
								CHANNELS 3 Zrotation Yrotation Xrotation
								JOINT RightHandIndex1
								{
									OFFSET -0.750000 0.000000 0.000000
									CHANNELS 3 Zrotation Yrotation Xrotation
									End Site
									{
										OFFSET 0.000000 0.000000 0.000000
									}
								}
							}
						}
					}
				}
			}
		}
	}
}
MOTION
Frames: 14
Frame Time: 0.016667
0.674550 17.495720 -7.535650 6.925325 -51.438167 -15.030196 -15.265104 13.531581 4.198293 17.897927 6.902840 -42.150658 3.637598 9.173184 32.425627 -0.016310 6.421927 1.965844 0.675860 0.472750 0.544680 18.191242 -10.479908 2.144150 -8.983935 5.108799 -9.314884 5.255327 -4.821708 24.867694 -0.525260 -3.947697 2.874465 0.098620 -0.197480 0.260990 -2.991095 -2.927798 -7.918529 -0.672061 7.081338 60.541362 3.936697 10.338098 1.392112 -3.510669 -15.116851 -10.949602 -32.054783 20.162137 29.819610 -7.809290 3.511950 -24.789530 -17.042152 -2.102255 6.251452 -29.678739 23.703398 -14.437050 -79.014174 -11.272072 -4.078471 -3.135376 3.506639 0.565760 -0.303330 0.324030 0.111570 23.488346 22.813592 5.057954 34.130346 25.165336 -4.983419 -156.628657 48.805648 -152.159050 2.215095 -1.900982 0.168440 0.063630 -0.189850 -0.060140 
0.717420 17.503770 -7.506390 5.525774 -52.844323 -12.653000 -15.328847 13.254382 4.483389 19.172154 6.935890 -42.449410 0.523658 11.067187 35.704764 0.080733 7.278753 1.628269 0.692120 0.486570 0.563000 18.188224 -10.291099 2.176299 -7.965424 5.471453 -11.100694 5.383349 -4.595442 23.956358 -0.509391 -3.643196 2.949777 0.092620 -0.260860 0.258030 -3.035426 -2.727308 -8.070570 0.455549 6.327957 59.196556 2.696452 10.045866 1.042914 -2.401589 -14.859463 -11.524398 -32.694613 21.075284 32.519784 -7.964740 3.857640 -26.104080 -19.029295 -3.045571 5.791983 -33.712487 22.031454 -15.386212 -71.315278 -13.391775 -2.454773 -3.108911 3.445432 0.619060 -0.361630 0.369280 0.092420 23.404732 23.219519 5.789950 37.126946 24.528402 -5.866180 -156.712447 52.095519 -155.316227 2.250675 -1.855549 0.181430 0.046390 -0.190140 -0.074270 
0.746970 17.534360 -7.472920 4.072010 -55.067890 -10.223266 -15.330264 13.170919 4.504746 19.025350 6.633052 -41.466311 -1.487899 12.599333 38.753907 0.168048 7.886750 1.379613 0.707220 0.517820 0.591160 18.180308 -10.294754 2.309920 -6.388659 5.634643 -12.502345 4.953993 -4.288556 23.140338 -0.503804 -3.334740 3.041764 0.092120 -0.332980 0.241020 -3.192058 -2.416589 -8.067438 1.413586 5.570437 57.675642 0.918364 9.378638 1.049986 -1.528818 -14.633829 -12.110783 -34.439790 22.740433 34.688601 -9.261320 4.446210 -28.950880 -22.176752 -4.782099 5.649643 -35.889645 20.753473 -15.901650 -62.542732 -16.932954 -0.515893 -3.076463 3.354376 0.669060 -0.422450 0.421720 0.055050 24.912163 23.998449 6.356373 40.160504 24.211770 -7.506353 -157.467854 59.485116 -160.774471 2.269429 -1.775007 0.198220 0.058690 -0.177490 -0.090750 
0.778690 17.497880 -7.402200 0.526073 -57.294248 -5.370726 -15.343685 12.941540 4.574433 17.990461 5.999436 -42.314745 -1.064068 13.794120 44.081780 0.340182 8.664521 1.107464 0.729470 0.547000 0.624580 18.168465 -10.325501 2.492324 -4.594012 5.632801 -13.439083 5.759847 -4.387861 21.809466 -0.515466 -3.156463 3.099485 0.085780 -0.385590 0.246390 -3.537821 -1.819386 -8.105837 4.507737 3.773599 54.881715 -1.882570 8.647805 0.763302 -0.527699 -14.151593 -12.266693 -34.516956 23.765993 36.786645 -10.818730 5.706330 -29.754140 -24.835874 -5.307458 5.226378 -36.893975 19.644886 -15.463279 -53.505168 -20.059640 0.965021 -3.025341 3.319007 0.686440 -0.449250 0.460950 0.043020 25.471545 23.211431 6.489160 44.920006 23.887404 -8.096080 -157.971934 65.698534 -164.043311 2.289421 -1.738502 0.226740 0.036720 -0.191250 -0.101460 
0.806120 17.450690 -7.349410 -4.276351 -58.873585 0.962300 -15.371282 12.758822 4.594928 17.156851 5.439068 -42.461721 -1.775793 14.812848 46.640880 0.475072 9.106071 0.951847 0.769460 0.580160 0.659610 18.157781 -10.221638 2.741281 -1.836187 6.360934 -15.468921 5.939026 -4.251651 21.570627 -0.537113 -2.934814 3.153100 0.076050 -0.450920 0.265500 -3.771042 -1.548307 -8.183883 7.652902 2.483506 52.043820 -3.883720 8.314449 -1.312721 0.340242 -13.424564 -11.848377 -34.890346 24.598720 39.846857 -11.385160 6.748980 -29.986110 -28.408354 -4.583654 4.153258 -38.802716 17.951938 -14.406630 -40.671328 -20.660000 0.787998 -2.943002 3.294637 0.719330 -0.494770 0.513590 0.047720 27.064655 20.945663 6.166585 49.215286 20.827889 -10.853478 -170.914889 74.877445 178.195219 2.245171 -1.657137 0.266470 -0.009640 -0.220610 -0.109790 
0.823930 17.380530 -7.295710 -7.843808 -59.153840 6.367716 -15.380991 12.522072 4.709317 15.923550 4.172755 -42.942786 -3.784389 15.931334 48.078693 0.601415 9.455546 0.824277 0.775370 0.578080 0.683320 18.162504 -10.074488 2.943716 -0.437515 7.184245 -17.567960 7.017894 -4.432984 21.632543 -0.547924 -2.853127 3.159794 0.042060 -0.518400 0.294900 -3.898643 -1.427082 -8.331203 9.661028 1.607955 49.063483 -6.039418 7.702754 -4.487556 1.478992 -12.318333 -10.833990 -32.985015 23.652789 43.151995 -12.460250 8.055810 -29.519090 -32.244283 -3.563932 2.739087 -39.929849 16.068189 -12.554102 -27.089440 -17.501309 -0.402969 -2.897019 3.268994 0.734220 -0.515820 0.550980 0.028790 28.321070 17.818788 5.281133 53.696299 16.129865 -18.337636 122.942053 78.958669 104.428473 2.524315 0.953664 0.308050 -0.094140 -0.236370 -0.129230 
0.834560 17.292040 -7.239580 -10.469391 -58.367428 10.268888 -15.305866 12.492451 4.663322 13.903576 2.398378 -42.186667 -5.188225 15.796783 47.583151 0.638485 9.255846 0.912567 0.805580 0.629130 0.713400 18.202849 -10.081159 3.106409 0.520607 7.450760 -18.895617 7.479192 -4.566847 21.831415 -0.568936 -2.806297 3.181530 0.049080 -0.540440 0.290510 -4.027705 -1.401722 -8.331136 11.769472 0.488679 45.826349 -7.298404 6.822194 -5.382871 1.880825 -11.456613 -10.155035 -31.454840 22.995244 45.394136 -11.736620 8.982270 -28.749400 -34.025957 -2.441864 1.270940 -41.810165 12.931914 -10.655798 -16.236985 -14.012851 -0.972421 -2.937517 3.162263 0.726100 -0.520630 0.579910 0.045150 29.008044 14.994371 4.978710 55.792585 13.552378 -10.696681 52.762124 85.716236 34.831426 2.715527 -1.538573 0.332930 -0.106580 -0.278950 -0.127680 
0.839080 17.191460 -7.187370 -12.677971 -57.000483 13.898986 -15.202240 12.477633 4.549309 11.682278 0.534948 -41.165645 -5.607486 14.703336 46.158598 0.598347 8.748982 1.147473 0.815970 0.636790 0.727080 18.277400 -10.127275 3.261310 1.550003 7.611977 -20.401475 7.411089 -4.597167 22.012232 -0.581572 -2.723059 3.231504 0.048500 -0.504660 0.269570 -4.173273 -1.323252 -8.294084 13.815972 -0.826670 42.852286 -8.556498 5.639891 -6.997209 2.082046 -11.050861 -9.638932 -30.606602 22.770172 45.526032 -9.802560 10.293730 -27.387390 -34.114482 -1.506849 0.619681 -43.472079 11.167989 -9.306420 -10.049416 -10.801417 -1.171934 -2.999063 3.065395 0.738410 -0.512710 0.584960 0.092170 28.626805 12.644600 4.379555 57.798572 10.378502 -14.782568 36.298143 73.852346 17.718596 2.484625 -1.693973 0.308120 -0.071480 -0.320520 -0.127160 
0.840270 17.090120 -7.149760 -13.607186 -55.152271 16.307878 -15.188953 12.513501 4.534171 9.615712 -1.380090 -40.771181 -5.681819 13.458476 44.815419 0.548819 8.236202 1.360745 0.772740 0.609490 0.673580 18.284671 -10.000805 3.349854 1.474479 7.784893 -21.760792 8.947012 -4.975515 21.833185 -0.560283 -2.751431 3.252866 0.029320 -0.446540 0.253770 -4.101029 -1.669844 -8.297167 14.371144 -1.546952 40.488470 -8.144899 4.684416 -9.261296 2.049973 -11.142867 -8.500307 -31.019869 22.405769 44.299391 -8.630290 10.823920 -25.951830 -34.983618 0.636021 -0.807578 -45.260952 9.195944 -8.244699 -4.292681 -8.565403 -1.138019 -3.109439 2.996763 0.708890 -0.476570 0.551630 0.108880 29.451758 9.663266 3.413306 57.383724 7.409009 -15.927988 28.945903 63.540429 10.977676 2.455569 -1.602415 0.291680 -0.053000 -0.309600 -0.109250 
0.833750 16.968350 -7.111410 -12.226605 -53.565806 17.466633 -15.218773 12.477767 4.633570 6.792877 -3.746391 -41.172979 -5.082868 12.080593 44.011220 0.463515 7.809341 1.571224 0.684410 0.517300 0.579140 18.267870 -9.856865 3.394417 0.494475 7.985298 -24.767738 9.085433 -5.327295 23.469549 -0.490007 -2.881582 3.241051 0.012470 -0.296250 0.241970 -3.986440 -2.016769 -8.312473 13.035389 -1.571202 36.837655 -6.976330 3.580229 -10.590162 1.485797 -11.279310 -7.334629 -30.541858 22.417925 41.248989 -6.276940 12.085760 -21.772870 -34.538239 2.801414 -1.846107 -47.434786 7.834441 -8.338486 -0.907080 -9.742667 -1.245997 -3.273752 2.952743 0.658460 -0.367040 0.449840 0.126830 30.181514 6.724911 2.231673 56.698962 5.069692 -15.887813 22.140826 52.698073 6.007652 2.417044 -1.480187 0.220210 -0.008070 -0.254430 -0.100770 
0.842310 16.935030 -7.095600 -11.692123 -51.866352 17.989004 -15.280127 12.543284 4.703253 5.214644 -5.462952 -41.247731 -3.206495 10.376246 43.811945 0.396576 7.364300 1.739490 0.642600 0.481750 0.524960 18.219493 -9.696898 3.403565 -0.075727 7.862419 -26.151411 9.804909 -5.729640 24.094330 -0.472564 -2.981128 3.211678 -0.006310 -0.247280 0.247070 -3.784194 -2.512887 -8.322611 11.512674 -2.013676 36.208787 -5.689165 2.784294 -11.928372 1.341924 -11.593476 -6.919297 -31.812660 22.377755 39.046888 -5.657420 12.038770 -21.235950 -34.621155 3.407168 -2.489333 -49.030415 6.352201 -8.851711 1.620973 -12.018826 -1.516944 -3.325349 2.964206 0.634370 -0.336400 0.415180 0.123710 30.867125 5.843856 1.839301 54.518760 3.155885 -15.375305 17.203998 42.492312 3.014670 2.435175 -1.368937 0.212540 -0.004090 -0.219710 -0.085610 
0.860660 16.956180 -7.083200 -10.817924 -51.419416 17.111730 -15.344578 12.684346 4.675785 4.396680 -6.494634 -40.341103 -1.536999 9.031888 43.242554 0.325257 6.935931 1.884103 0.675490 0.530110 0.526990 18.151244 -9.553862 3.450445 -1.682061 8.049103 -27.802846 10.944782 -6.485776 26.320324 -0.538632 -3.336123 3.070273 0.019280 -0.254180 0.254770 -3.533810 -2.989124 -8.330777 8.916957 -1.535163 37.315174 -4.074603 2.790988 -12.883709 1.019677 -11.567763 -6.633821 -33.291789 22.532368 38.440060 -4.810820 11.436580 -22.397050 -35.498690 3.074029 -3.227235 -48.892363 3.535942 -8.946940 3.074325 -14.554373 -1.853789 -3.308751 2.995955 0.639280 -0.347040 0.429360 0.135640 32.747289 5.926155 1.882769 50.968693 1.395020 -14.399423 13.000518 33.880633 1.193884 2.443730 -1.306030 0.227580 -0.000510 -0.229730 -0.076070 
0.902060 17.018590 -7.084920 -11.568836 -51.968659 16.764982 -15.439355 12.670385 4.808879 6.880027 -6.912869 -40.871830 -1.888255 9.366009 44.630393 0.318544 7.324285 1.731223 0.716950 0.574440 0.563490 18.075744 -9.425562 3.357472 -2.192499 7.697833 -26.922842 12.620097 -6.816198 25.162822 -0.568270 -3.355146 3.039760 0.064100 -0.268760 0.250260 -3.355940 -3.316226 -8.368702 7.132156 -1.011966 39.898281 -2.568164 3.594538 -12.989539 0.552287 -11.691902 -6.617330 -35.693372 22.807710 37.434654 -4.138860 10.344300 -24.710620 -37.154544 1.657284 -3.868462 -48.132766 0.003593 -9.231197 4.554286 -18.465081 -2.473203 -3.283464 2.996838 0.664380 -0.370450 0.444350 0.124240 35.536948 7.348173 2.718736 45.740941 -0.050117 -13.372490 10.051000 28.351443 0.379679 2.415603 -1.282922 0.219870 0.035250 -0.226260 -0.086180 
0.954080 17.063860 -7.082520 -11.527147 -53.198708 15.712200 -15.549703 12.511963 4.944017 9.604068 -7.397872 -41.502635 -2.905507 10.320927 46.533283 0.286242 7.984329 1.478695 0.742730 0.582320 0.560620 18.018305 -9.185757 3.365052 -4.072005 8.117298 -28.259119 14.646372 -7.996093 27.533323 -0.643889 -3.941396 2.801277 0.125160 -0.238780 0.261860 -3.233121 -3.550732 -8.449993 4.818090 -0.160960 42.450823 -1.129238 4.280004 -12.689141 -0.311871 -12.018508 -6.289491 -38.223333 23.201060 34.255829 -3.398380 9.233020 -25.828320 -38.214606 0.992678 -4.762673 -46.882539 -3.659131 -9.570121 6.076904 -23.671653 -3.357287 -3.308700 3.004797 0.686900 -0.349330 0.408900 0.111770 38.391686 7.877159 3.551704 40.357915 -1.739789 -12.545452 8.297147 25.577863 0.103558 2.317540 -1.326126 0.178340 0.066870 -0.182660 -0.108760 
